<svg xmlns="http://www.w3.org/2000/svg" xmlns:xlink="http://www.w3.org/1999/xlink" width="600" height="157.199" viewBox="0 0 600 157.199"><defs><style>.a{fill:none;}.b{clip-path:url(#a);}.c{fill:#fff;}</style><clipPath id="a"><rect class="a" width="600" height="157.199"/></clipPath></defs><g class="b"><path class="c" d="M156.6,69.337a78.809,78.809,0,0,0-18.431-41.866A78.675,78.675,0,0,0,0,78.6c0,.386.052.757.058,1.143.015,1.024.1,2.03.155,3.044a78.783,78.783,0,0,0,1.3,11.063A77.938,77.938,0,0,0,10.9,118.343a78.39,78.39,0,0,0,135.437-.078,77.906,77.906,0,0,0,9.316-24.225A78.606,78.606,0,0,0,157,82.532c.041-.835.112-1.665.127-2.508.009-.479.073-.943.073-1.424a78.728,78.728,0,0,0-.6-9.264M16.317,73.084A50.47,50.47,0,0,1,65,75.055a26.847,26.847,0,0,0,27.465,0,50.466,50.466,0,0,1,48.767-1.931,9.774,9.774,0,0,1,4.693,8.225,9.968,9.968,0,0,1-4.564,8.166,50.477,50.477,0,0,1-48.9-1.883,26.828,26.828,0,0,0-27.46,0A50.473,50.473,0,0,1,15.976,89.44,9.554,9.554,0,0,1,11.5,81.718a9.3,9.3,0,0,1,4.812-8.634M78.6,11.453a66.484,66.484,0,0,1,30.314,7.3,1.88,1.88,0,0,1-.721,3.548,60.814,60.814,0,0,0-16.555,3.589l-30.288,11.2a50.685,50.685,0,0,1-32.639.77,1.951,1.951,0,0,1-.869-3.089A66.954,66.954,0,0,1,78.6,11.453M18.308,49.073a3.045,3.045,0,0,1,3.839-1.43,62.041,62.041,0,0,0,43.171.183l30.288-11.2a50.332,50.332,0,0,1,30.782-1.281,13.743,13.743,0,0,1,7.718,5.589,66.837,66.837,0,0,1,7.414,14.43,3.058,3.058,0,0,1-3.775,3.988,61.823,61.823,0,0,0-51.37,6,14.664,14.664,0,0,1-15.36-.047,61.842,61.842,0,0,0-51.625-5.839,3.045,3.045,0,0,1-3.8-3.919,64.688,64.688,0,0,1,2.72-6.477M78.6,145.747a66.761,66.761,0,0,1-45.771-18.161,2.408,2.408,0,0,1,1.452-4.174,50.485,50.485,0,0,1,37.335,11.717,10.928,10.928,0,0,0,14.188-.007,50.418,50.418,0,0,1,37.132-11.73,2.408,2.408,0,0,1,1.458,4.174A66.762,66.762,0,0,1,78.6,145.747M132.277,113.3a62.266,62.266,0,0,0-51.5,11.156,3.381,3.381,0,0,1-4.156,0,62.265,62.265,0,0,0-51.784-11.089A4.375,4.375,0,0,1,20,111.2a26.768,26.768,0,0,1-2.509-4.982,2.2,2.2,0,0,1,2.651-2.752,61.915,61.915,0,0,0,50.937-6.128,14.56,14.56,0,0,1,15.263-.032A61.95,61.95,0,0,0,118.63,106.4c6.3,0,12.351-1.859,18.582-2.879a2.212,2.212,0,0,1,2.442,2.722,41.374,41.374,0,0,1-2.418,4.9,4.5,4.5,0,0,1-4.959,2.157"/><path class="c" d="M110.99,54.216A12.2,12.2,0,0,1,98.5,41.651,12.2,12.2,0,0,1,110.99,29.085h12.342a4.638,4.638,0,1,1,0,9.275H111.516a3.014,3.014,0,0,0-2.992,3.067,2.969,2.969,0,0,0,2.992,3.065h16.947a3.248,3.248,0,0,0,3.248-3.248V31.777a7.273,7.273,0,0,0-7.478-7.48h-17.8a4.862,4.862,0,1,1,0-9.724h18.1a17.2,17.2,0,0,1,17.2,17.2V50.1a4.126,4.126,0,0,1-4.113,4.113Z" transform="translate(85.14 12.596)"/><path class="c" d="M124.913,10.759a5.01,5.01,0,1,1,10.021,0v46.9a5.01,5.01,0,0,1-10.021,0Z" transform="translate(107.967 4.968)"/><path class="c" d="M134.751,10.759a5.01,5.01,0,1,1,10.021,0v46.9a5.01,5.01,0,0,1-10.021,0Z" transform="translate(116.47 4.968)"/><path class="c" d="M157.847,70.074a4.861,4.861,0,0,1,0-9.723h19.37a4.833,4.833,0,0,0,5.011-5.013V54.216H166.221c-10.919,0-18.548-7.929-18.548-18.474V33.05c0-10.548,7.629-18.477,18.548-18.477H188.14a4.154,4.154,0,0,1,4.115,4.116V55.339a14.353,14.353,0,0,1-14.736,14.736Zm24.382-41.933a3.844,3.844,0,0,0-3.844-3.844H167.2c-5.688,0-9.5,3.889-9.5,8.977v2.241c0,5.09,3.813,8.977,9.5,8.977h11.188a3.844,3.844,0,0,0,3.844-3.844Z" transform="translate(127.639 12.596)"/><path class="c" d="M192.475,54.216c-10.921,0-18.548-7.929-18.548-18.474V33.05c0-10.547,7.627-18.477,18.548-18.477h9.872c10.921,0,18.554,7.931,18.554,18.477v2.692c0,10.545-7.633,18.474-18.554,18.474Zm18.4-21.166c0-5.011-3.512-8.751-8.527-8.751h-9.872c-5.009,0-8.528,3.74-8.528,8.751v2.692c0,5.011,3.518,8.749,8.528,8.749h9.872c5.015,0,8.527-3.738,8.527-8.749Z" transform="translate(150.332 12.596)"/><path class="c" d="M219.521,54.216c-10.74,0-18.243-7.929-18.243-18.474V33.05c0-10.547,7.5-18.477,18.243-18.477h9.711c10.737,0,18.237,7.931,18.237,18.477v2.692c0,10.545-7.5,18.474-18.237,18.474ZM237.614,33.05c0-5.011-3.453-8.751-8.382-8.751h-9.711c-4.927,0-8.386,3.74-8.386,8.751v2.692c0,5.011,3.458,8.749,8.386,8.749h9.711c4.929,0,8.382-3.738,8.382-8.749Z" transform="translate(173.972 12.596)"/><path class="c" d="M246.446,61.844c-10.74,0-18.241-7.929-18.241-18.474V40.678c0-10.547,7.5-18.477,18.241-18.477h12.881a3.627,3.627,0,0,0,3.6-3.656V10.759a4.928,4.928,0,1,1,9.855,0V57.735a4.089,4.089,0,0,1-4.042,4.109Zm16.477-26.983a2.91,2.91,0,0,0-2.886-2.934H247.4c-5.593,0-9.344,3.889-9.344,8.975v2.243c0,5.088,3.751,8.975,9.344,8.975h12.633a2.911,2.911,0,0,0,2.886-2.934Z" transform="translate(197.246 4.968)"/><path class="c" d="M153.441,71.876a7.274,7.274,0,0,0-7.482-7.48h-4.331a4.87,4.87,0,0,0-4.87,4.87v20.86a5.01,5.01,0,1,1-10.021,0V69.266a4.87,4.87,0,0,0-4.87-4.87h-6.792a4.869,4.869,0,0,0-4.87,4.87v20.86a5.01,5.01,0,1,1-10.021,0V58.787a4.126,4.126,0,0,1,4.115-4.115h41.959a17.2,17.2,0,0,1,17.2,17.2V90.126a5.01,5.01,0,1,1-10.021,0Z" transform="translate(86.595 47.255)"/><path class="c" d="M148.883,94.315a12.566,12.566,0,0,1,0-25.131h12.342a4.638,4.638,0,0,1,0,9.275H149.409a3.014,3.014,0,0,0-2.992,3.067,2.969,2.969,0,0,0,2.992,3.065h16.947a3.248,3.248,0,0,0,3.248-3.248V71.876a7.273,7.273,0,0,0-7.478-7.48H144.319a4.862,4.862,0,0,1,0-9.724h18.1a17.208,17.208,0,0,1,17.21,17.208V90.2a4.127,4.127,0,0,1-4.115,4.113Z" transform="translate(117.892 47.255)"/><path class="c" d="M199.89,71.952a5.01,5.01,0,1,1-10.021,0v-.9c0-4.34-2.248-6.658-6.583-6.658h-7.541a3.531,3.531,0,0,0-3.531,3.531v22.2a5.01,5.01,0,0,1-10.021,0V58.787a4.128,4.128,0,0,1,4.115-4.116h16.979a16.6,16.6,0,0,1,16.6,16.6Z" transform="translate(140.19 47.254)"/><path class="c" d="M184.027,52.724a6.056,6.056,0,1,1,6.057,6.059,6.034,6.034,0,0,1-6.057-6.059m1.046,13.056a5.01,5.01,0,1,1,10.021,0V97.047a5.01,5.01,0,0,1-10.021,0Z" transform="translate(159.062 40.334)"/><path class="c" d="M224.5,71.876a7.273,7.273,0,0,0-7.476-7.48h-9.944a4.12,4.12,0,0,0-4.12,4.12v21.61a5.011,5.011,0,0,1-10.023,0V58.787a4.128,4.128,0,0,1,4.116-4.115h20.265a17.2,17.2,0,0,1,17.2,17.2V90.126a5.01,5.01,0,1,1-10.021,0Z" transform="translate(166.766 47.255)"/><path class="c" d="M236.151,94.315c-10.921,0-18.55-7.929-18.55-18.474V73.148c0-10.547,7.629-18.476,18.55-18.476h12.415c8.68,0,13.763,5.384,13.763,12.493S257.246,79.58,248.566,79.58H238.243a4.638,4.638,0,0,1,0-9.275h10.323c2.321,0,3.742-1.271,3.742-2.992s-1.27-2.916-3.742-2.916H237.124c-5.688,0-9.5,3.889-9.5,8.975v2.243c0,5.09,3.813,8.977,9.5,8.977h17.8a4.862,4.862,0,0,1,0,9.724Z" transform="translate(188.081 47.255)"/><path class="c" d="M252.575,97.99a4.937,4.937,0,1,1,0-9.874h22.066a4.488,4.488,0,1,0,0-8.975H254.817a4.937,4.937,0,0,1,0-9.874h19.823a4.488,4.488,0,1,0,0-8.975H252.575a4.937,4.937,0,1,1,0-9.874h22.139c8.227,0,14.808,5.908,14.808,14.061a13.217,13.217,0,0,1-2.961,8.5,1.913,1.913,0,0,0-.015,2.472A13.421,13.421,0,0,1,289.522,84c0,8.078-6.581,13.986-14.808,13.986Z" transform="translate(214.041 43.58)"/><path class="c" d="M287.076,97.99c-8.225,0-14.808-5.908-14.808-13.986a13.417,13.417,0,0,1,2.67-8.156,2.753,2.753,0,0,0-.011-3.259,13.239,13.239,0,0,1-2.659-8.106c0-8.155,6.583-14.063,14.808-14.063h16.005c8.231,0,14.814,5.908,14.814,14.063a13.239,13.239,0,0,1-2.659,8.106,2.752,2.752,0,0,0-.011,3.259A13.417,13.417,0,0,1,317.9,84c0,8.078-6.583,13.986-14.814,13.986Zm.078-37.7a4.488,4.488,0,1,0,0,8.975h15.854a4.488,4.488,0,1,0,0-8.975Zm0,18.848a4.488,4.488,0,1,0-.078,8.975h15.933a4.488,4.488,0,1,0,0-8.975Z" transform="translate(235.332 43.58)"/><path class="c" d="M303.9,97.99a4.937,4.937,0,1,1,0-9.874h22.212a4.854,4.854,0,0,0,5.162-4.935c0-2.7-2.019-4.788-5.162-4.788H302.926a3.976,3.976,0,0,1-3.965-3.964V54.385a3.977,3.977,0,0,1,3.965-3.965h32.162a4.937,4.937,0,1,1,0,9.874H311.6a2.316,2.316,0,0,0-2.317,2.317V66.2a2.317,2.317,0,0,0,2.317,2.317h14.659c9.128,0,15.334,6.51,15.334,14.736S335.39,97.99,326.262,97.99Z" transform="translate(258.403 43.58)"/></g></svg>